<svg data-tid="2ca8f35c e867b091" data-tid-prop="e867b091" fill="none" height="24" viewBox="0 0 32 24" width="32" xmlns="http://www.w3.org/2000/svg">
  <rect height="23" rx="1.5" width="31" x=".5" y=".5"></rect><path clip-rule="evenodd" d="m10 16h8.7883l-.7883-4.2998 4 2.0228v-5.723h-12zm-.23647 1h9.20807l.297 1.62c.0674.3672.5565.4501.7411.1256l1.3105-2.3034c.0512-.09.1353-.1566.2345-.1859l2.4778-.7309c.3474-.1025.3906-.5771.0673-.7406l-1.0998-.5562v-6.4286c0-.44183-.3582-.8-.8-.8h-12.43647c-.47721 0-.76353.3-.76353.7v8.5c0 .5.38177.8.76353.8zm9.56977-3.4591 2.8 1.4159-1.0666.354-.2589.0916c-.091.0323-.1673.0963-.2148.1804l-.1263.2236-.5334.9911zm-7.1333-1.3837h2v2h-2z" fill-rule="evenodd"></path>
</svg>
