<svg data-tid="4f73035e e867b091" data-tid-prop="e867b091" fill="none" height="24" viewBox="0 0 32 24" width="32" xmlns="http://www.w3.org/2000/svg">
  <rect height="23" rx="1.5" stroke="#222" width="31" x=".5" y=".5"></rect><path clip-rule="evenodd" d="m21 8h-11v8h11v-2h-3.3328c-.3685 0-.6672-.2987-.6672-.6672v-2.6656c0-.3685.2987-.6672.6672-.6672h3.3328zm1 2v-2c0-.5-.5-1-.9286-1h-11.0714c-.5 0-1 .5-1 1v8c0 .5.5 1 1 1h11c.5 0 1-.5 1-1v-2h.3328c.3685 0 .6672-.2987.6672-.6672v-2.6656c0-.3685-.2987-.6672-.6672-.6672zm0 1h-1-3v2h4z" fill-rule="evenodd"></path>
</svg>
