<svg width="25" height="25" viewBox="0 0 20 20" fill="none" xmlns="http://www.w3.org/2000/svg">
  <path fill-rule="evenodd" clip-rule="evenodd" d="M5.25391 7C5.25391 4.37665 7.38055 2.25 10.0039 2.25C12.6273 2.25 14.7539 4.37665 14.7539 7C14.7539 9.62335 12.6273 11.75 10.0039 11.75C7.38055 11.75 5.25391 9.62335 5.25391 7ZM10.0039 3.75C8.20898 3.75 6.75391 5.20507 6.75391 7C6.75391 8.79493 8.20898 10.25 10.0039 10.25C11.7988 10.25 13.2539 8.79493 13.2539 7C13.2539 5.20507 11.7988 3.75 10.0039 3.75Z"></path><path fill-rule="evenodd" clip-rule="evenodd" d="M1.43619 16.5024C3.1879 14.5055 6.41729 13.25 9.999 13.25C13.5822 13.25 16.8129 14.5066 18.5641 16.505C18.8371 16.8165 18.8058 17.2903 18.4943 17.5633C18.1828 17.8363 17.7089 17.8051 17.4359 17.4936C16.0507 15.9127 13.2906 14.75 9.999 14.75C6.70886 14.75 3.94968 15.9117 2.56381 17.4916L1.43619 16.5024Z"></path>
</svg>