<svg height="20" viewBox="0 0 20 20" width="20" xmlns="http://www.w3.org/2000/svg" data-tid="7daa62bc">
  <path d="m16.9841 14.5064v2.4935h-13.96799v-2.4935c1.45294-2.7122 3.78094-4.0684 6.98399-4.0684 3.2031 0 5.5311 1.3562 6.984 4.0684zm-6.984-2.5684c-2.52772 0-4.29472.9578-5.48399 2.9615v.6004h10.96799v-.6004c-1.1893-2.0037-2.9563-2.9615-5.484-2.9615zm3.686-6.38408c0 2.03572-1.6503 3.686-3.686 3.686-2.03571 0-3.68599-1.65028-3.68599-3.686s1.65028-3.686 3.68599-3.686c2.0357 0 3.686 1.65028 3.686 3.686zm-1.5 0c0-1.20729-.9787-2.186-2.186-2.186-1.20728 0-2.18599.97871-2.18599 2.186s.97871 2.186 2.18599 2.186c1.2073 0 2.186-.97871 2.186-2.186z"></path>
</svg>
