<svg width="193" height="48" viewBox="0 0 193 48" fill="black" xmlns="http://www.w3.org/2000/svg">
<path d="M62.9875 23.442L62.969 14.3778L58.7007 21.8792H57.6244L53.3561 14.4951V23.442H51.0549V9.76761H53.0406L58.1996 18.8318L63.2659 9.76761H65.2516L65.2701 23.442H62.9875ZM68.7791 9.76761H71.1916V23.442H68.7791V9.76761ZM83.2043 23.442L80.5505 19.4374C80.4392 19.4504 80.2722 19.4569 80.0495 19.4569H77.1174V23.442H74.7049V9.76761H80.0495C81.1757 9.76761 82.1528 9.96296 82.9816 10.3537C83.823 10.7444 84.4662 11.3043 84.9116 12.0337C85.357 12.763 85.5797 13.629 85.5797 14.6318C85.5797 15.6606 85.3384 16.5462 84.8559 17.2885C84.3861 18.0309 83.7053 18.5844 82.8146 18.949L85.8024 23.442H83.2043ZM83.1486 14.6318C83.1486 13.7593 82.8766 13.0885 82.3321 12.6197C81.7881 12.1509 80.9901 11.9165 79.9381 11.9165H77.1174V17.3667H79.9381C80.9901 17.3667 81.7881 17.1323 82.3321 16.6634C82.8766 16.1816 83.1486 15.5043 83.1486 14.6318ZM96.7784 23.442L94.1247 19.4374C94.0133 19.4504 93.8463 19.4569 93.6236 19.4569H90.6915V23.442H88.279V9.76761H93.6236C94.7493 9.76761 95.727 9.96296 96.5557 10.3537C97.3972 10.7444 98.0404 11.3043 98.4857 12.0337C98.9311 12.763 99.1538 13.629 99.1538 14.6318C99.1538 15.6606 98.9126 16.5462 98.4301 17.2885C97.9598 18.0309 97.2795 18.5844 96.3887 18.949L99.3765 23.442H96.7784ZM96.7228 14.6318C96.7228 13.7593 96.4508 13.0885 95.9062 12.6197C95.3617 12.1509 94.5637 11.9165 93.5123 11.9165H90.6915V17.3667H93.5123C94.5637 17.3667 95.3617 17.1323 95.9062 16.6634C96.4508 16.1816 96.7228 15.5043 96.7228 14.6318ZM107.922 23.6374C106.598 23.6374 105.404 23.3378 104.34 22.7388C103.276 22.1267 102.441 21.2867 101.835 20.2188C101.228 19.1378 100.925 17.9332 100.925 16.6048C100.925 15.2765 101.228 14.0783 101.835 13.0104C102.441 11.9295 103.276 11.0895 104.34 10.4904C105.404 9.87829 106.598 9.57227 107.922 9.57227C109.245 9.57227 110.439 9.87829 111.503 10.4904C112.567 11.0895 113.402 11.923 114.008 12.9909C114.614 14.0588 114.918 15.2634 114.918 16.6048C114.918 17.9462 114.614 19.1509 114.008 20.2188C113.402 21.2867 112.567 22.1267 111.503 22.7388C110.439 23.3378 109.245 23.6374 107.922 23.6374ZM107.922 21.4104C108.787 21.4104 109.567 21.2085 110.26 20.8048C110.952 20.3881 111.497 19.8151 111.893 19.0858C112.288 18.3434 112.487 17.5164 112.487 16.6048C112.487 15.6932 112.288 14.8728 111.893 14.1434C111.497 13.4011 110.952 12.8281 110.26 12.4244C109.567 12.0076 108.787 11.7992 107.922 11.7992C107.055 11.7992 106.276 12.0076 105.583 12.4244C104.89 12.8281 104.346 13.4011 103.95 14.1434C103.554 14.8728 103.356 15.6932 103.356 16.6048C103.356 17.5164 103.554 18.3434 103.95 19.0858C104.346 19.8151 104.89 20.3881 105.583 20.8048C106.276 21.2085 107.055 21.4104 107.922 21.4104ZM125.974 23.442L123.321 19.4374C123.209 19.4504 123.042 19.4569 122.82 19.4569H119.888V23.442H117.475V9.76761H122.82C123.945 9.76761 124.922 9.96296 125.752 10.3537C126.593 10.7444 127.236 11.3043 127.682 12.0337C128.127 12.763 128.35 13.629 128.35 14.6318C128.35 15.6606 128.109 16.5462 127.626 17.2885C127.156 18.0309 126.476 18.5844 125.585 18.949L128.573 23.442H125.974ZM125.919 14.6318C125.919 13.7593 125.646 13.0885 125.102 12.6197C124.558 12.1509 123.76 11.9165 122.708 11.9165H119.888V17.3667H122.708C123.76 17.3667 124.558 17.1323 125.102 16.6634C125.646 16.1816 125.919 15.5043 125.919 14.6318ZM136.177 9.76761H138.59V21.2932H145.382V23.442H136.177V9.76761ZM153.12 23.6374C151.796 23.6374 150.602 23.3378 149.538 22.7388C148.474 22.1267 147.639 21.2867 147.033 20.2188C146.426 19.1378 146.123 17.9332 146.123 16.6048C146.123 15.2765 146.426 14.0783 147.033 13.0104C147.639 11.9295 148.474 11.0895 149.538 10.4904C150.602 9.87829 151.796 9.57227 153.12 9.57227C154.443 9.57227 155.637 9.87829 156.701 10.4904C157.765 11.0895 158.6 11.923 159.207 12.9909C159.813 14.0588 160.116 15.2634 160.116 16.6048C160.116 17.9462 159.813 19.1509 159.207 20.2188C158.6 21.2867 157.765 22.1267 156.701 22.7388C155.637 23.3378 154.443 23.6374 153.12 23.6374ZM153.12 21.4104C153.985 21.4104 154.765 21.2085 155.458 20.8048C156.15 20.3881 156.695 19.8151 157.091 19.0858C157.486 18.3434 157.685 17.5164 157.685 16.6048C157.685 15.6932 157.486 14.8728 157.091 14.1434C156.695 13.4011 156.15 12.8281 155.458 12.4244C154.765 12.0076 153.985 11.7992 153.12 11.7992C152.253 11.7992 151.474 12.0076 150.781 12.4244C150.088 12.8281 149.544 13.4011 149.148 14.1434C148.752 14.8728 148.554 15.6932 148.554 16.6048C148.554 17.5164 148.752 18.3434 149.148 19.0858C149.544 19.8151 150.088 20.3881 150.781 20.8048C151.474 21.2085 152.253 21.4104 153.12 21.4104ZM168.741 23.6374C167.417 23.6374 166.223 23.3378 165.16 22.7388C164.096 22.1267 163.261 21.2867 162.655 20.2188C162.048 19.1378 161.745 17.9332 161.745 16.6048C161.745 15.2765 162.048 14.0783 162.655 13.0104C163.261 11.9295 164.096 11.0895 165.16 10.4904C166.223 9.87829 167.417 9.57227 168.741 9.57227C170.065 9.57227 171.259 9.87829 172.323 10.4904C173.387 11.0895 174.222 11.923 174.828 12.9909C175.434 14.0588 175.738 15.2634 175.738 16.6048C175.738 17.9462 175.434 19.1509 174.828 20.2188C174.222 21.2867 173.387 22.1267 172.323 22.7388C171.259 23.3378 170.065 23.6374 168.741 23.6374ZM168.741 21.4104C169.607 21.4104 170.387 21.2085 171.08 20.8048C171.772 20.3881 172.317 19.8151 172.713 19.0858C173.108 18.3434 173.307 17.5164 173.307 16.6048C173.307 15.6932 173.108 14.8728 172.713 14.1434C172.317 13.4011 171.772 12.8281 171.08 12.4244C170.387 12.0076 169.607 11.7992 168.741 11.7992C167.875 11.7992 167.096 12.0076 166.403 12.4244C165.71 12.8281 165.166 13.4011 164.77 14.1434C164.374 14.8728 164.176 15.6932 164.176 16.6048C164.176 17.5164 164.374 18.3434 164.77 19.0858C165.166 19.8151 165.71 20.3881 166.403 20.8048C167.096 21.2085 167.875 21.4104 168.741 21.4104ZM182.767 17.7183L180.707 19.9453V23.442H178.295V9.76761H180.707V16.7806L187.128 9.76761H189.838L184.382 15.882L190.172 23.442H187.351L182.767 17.7183Z" fill="black"/>
<path d="M51.4971 30.9209H52.1938V36.7479L56.4695 30.9209H57.1089V37.9535H56.4122V32.1365L52.1365 37.9535H51.4971V30.9209ZM59.2012 32.669H59.8788V35.0098H63.0378V32.669H63.7155V37.9535H63.0378V35.6227H59.8788V37.9535H59.2012V32.669ZM69.1725 33.3019H67.2732V37.9535H66.5956V33.3019H64.6964V32.669H69.1725V33.3019ZM74.3098 35.5322H70.1104C70.1486 36.0815 70.349 36.5269 70.7117 36.8684C71.0744 37.2033 71.5325 37.3708 72.086 37.3708C72.3978 37.3708 72.6841 37.3138 72.945 37.2C73.2059 37.0794 73.4317 36.9053 73.6226 36.6775L74.0044 37.1397C73.7817 37.421 73.5017 37.6353 73.1645 37.7827C72.8336 37.93 72.4678 38.0037 72.0669 38.0037C71.5516 38.0037 71.0935 37.8898 70.6926 37.6621C70.2981 37.4277 69.9895 37.1062 69.7668 36.6976C69.5442 36.2891 69.4328 35.8269 69.4328 35.3112C69.4328 34.7955 69.5378 34.3334 69.7478 33.9248C69.9641 33.5162 70.2568 33.1981 70.6258 32.9704C71.0012 32.7427 71.4211 32.6288 71.8856 32.6288C72.3501 32.6288 72.7668 32.7427 73.1359 32.9704C73.5049 33.1981 73.7944 33.5162 74.0044 33.9248C74.2143 34.3267 74.3193 34.7888 74.3193 35.3112L74.3098 35.5322ZM71.8856 33.2416C71.4021 33.2416 70.9948 33.4057 70.664 33.7339C70.3395 34.0554 70.155 34.4774 70.1104 34.9998H73.6703C73.6258 34.4774 73.4381 34.0554 73.1072 33.7339C72.7827 33.4057 72.3755 33.2416 71.8856 33.2416ZM78.4057 32.6288C78.8766 32.6288 79.3029 32.7427 79.6846 32.9704C80.0664 33.1914 80.3654 33.5062 80.5817 33.9148C80.7981 34.3233 80.9062 34.7888 80.9062 35.3112C80.9062 35.8403 80.7981 36.3092 80.5817 36.7177C80.3654 37.1263 80.0664 37.4444 79.6846 37.6722C79.3092 37.8932 78.8829 38.0037 78.4057 38.0037C77.9985 38.0037 77.6295 37.9166 77.2986 37.7425C76.9741 37.5616 76.7069 37.3004 76.4969 36.9589V39.9025H75.8193V32.669H76.4683V33.7138C76.6719 33.3655 76.9391 33.0976 77.27 32.9101C77.6072 32.7226 77.9858 32.6288 78.4057 32.6288ZM78.358 37.3708C78.7079 37.3708 79.0261 37.287 79.3124 37.1196C79.5987 36.9455 79.8214 36.701 79.9805 36.3862C80.1459 36.0714 80.2286 35.7131 80.2286 35.3112C80.2286 34.9094 80.1459 34.5544 79.9805 34.2463C79.8214 33.9315 79.5987 33.687 79.3124 33.5129C79.0261 33.3388 78.7079 33.2517 78.358 33.2517C78.0017 33.2517 77.6804 33.3388 77.3941 33.5129C77.1141 33.687 76.8914 33.9315 76.726 34.2463C76.5669 34.5544 76.4874 34.9094 76.4874 35.3112C76.4874 35.7131 76.5669 36.0714 76.726 36.3862C76.8914 36.701 77.1141 36.9455 77.3941 37.1196C77.6804 37.287 78.0017 37.3708 78.358 37.3708ZM82.3622 32.669H83.0398V35.0098H86.1989V32.669H86.8765V37.9535H86.1989V35.6227H83.0398V37.9535H82.3622V32.669ZM93.1925 35.5322H88.9932C89.0313 36.0815 89.2318 36.5269 89.5944 36.8684C89.9571 37.2033 90.4152 37.3708 90.9688 37.3708C91.2805 37.3708 91.5668 37.3138 91.8277 37.2C92.0886 37.0794 92.3145 36.9053 92.5053 36.6775L92.8871 37.1397C92.6644 37.421 92.3844 37.6353 92.0472 37.7827C91.7164 37.93 91.3505 38.0037 90.9497 38.0037C90.4343 38.0037 89.9762 37.8898 89.5753 37.6621C89.1809 37.4277 88.8723 37.1062 88.6496 36.6976C88.4269 36.2891 88.3155 35.8269 88.3155 35.3112C88.3155 34.7955 88.4205 34.3334 88.6305 33.9248C88.8468 33.5162 89.1395 33.1981 89.5085 32.9704C89.8839 32.7427 90.3039 32.6288 90.7683 32.6288C91.2328 32.6288 91.6496 32.7427 92.0186 32.9704C92.3876 33.1981 92.6771 33.5162 92.8871 33.9248C93.0971 34.3267 93.202 34.7888 93.202 35.3112L93.1925 35.5322ZM90.7683 33.2416C90.2848 33.2416 89.8776 33.4057 89.5467 33.7339C89.2222 34.0554 89.0377 34.4774 88.9932 34.9998H92.553C92.5085 34.4774 92.3208 34.0554 91.99 33.7339C91.6655 33.4057 91.2583 33.2416 90.7683 33.2416ZM98.0095 33.3019H96.1103V37.9535H95.4327V33.3019H93.5334V32.669H98.0095V33.3019ZM98.3743 34.9194H100.875V35.5423H98.3743V34.9194ZM108.022 32.669V37.9535H107.401V33.7741L105.368 37.3105H105.063L103.03 33.7641V37.9535H102.41V32.669H103.097L105.225 36.4766L107.392 32.669H108.022ZM111.678 32.6288C112.333 32.6288 112.836 32.8029 113.185 33.1512C113.535 33.4928 113.71 34.0018 113.71 34.6783V37.9535H113.061V37.1296C112.909 37.4042 112.683 37.6186 112.384 37.7726C112.091 37.9267 111.741 38.0037 111.334 38.0037C110.774 38.0037 110.329 37.863 109.998 37.5817C109.667 37.3004 109.502 36.9287 109.502 36.4666C109.502 36.0178 109.654 35.6562 109.96 35.3815C110.271 35.1069 110.765 34.9696 111.439 34.9696H113.033V34.6482C113.033 34.1927 112.912 33.8478 112.67 33.6134C112.428 33.3722 112.075 33.2517 111.611 33.2517C111.293 33.2517 110.987 33.3086 110.695 33.4225C110.402 33.5296 110.151 33.6803 109.941 33.8746L109.635 33.3421C109.89 33.1144 110.195 32.9402 110.551 32.8197C110.908 32.6924 111.283 32.6288 111.678 32.6288ZM111.439 37.4411C111.821 37.4411 112.148 37.3507 112.422 37.1698C112.696 36.9823 112.899 36.7144 113.033 36.3661V35.5021H111.458C110.599 35.5021 110.17 35.8169 110.17 36.4465C110.17 36.7546 110.281 36.999 110.504 37.1799C110.726 37.354 111.038 37.4411 111.439 37.4411ZM119.065 33.3019H116.192V37.9535H115.514V32.669H119.065V33.3019ZM121.771 32.6288C122.427 32.6288 122.929 32.8029 123.279 33.1512C123.629 33.4928 123.804 34.0018 123.804 34.6783V37.9535H123.155V37.1296C123.003 37.4042 122.777 37.6186 122.478 37.7726C122.185 37.9267 121.835 38.0037 121.428 38.0037C120.868 38.0037 120.422 37.863 120.092 37.5817C119.761 37.3004 119.595 36.9287 119.595 36.4666C119.595 36.0178 119.748 35.6562 120.053 35.3815C120.365 35.1069 120.858 34.9696 121.533 34.9696H123.127V34.6482C123.127 34.1927 123.006 33.8478 122.764 33.6134C122.522 33.3722 122.169 33.2517 121.705 33.2517C121.386 33.2517 121.081 33.3086 120.788 33.4225C120.496 33.5296 120.244 33.6803 120.034 33.8746L119.729 33.3421C119.983 33.1144 120.289 32.9402 120.645 32.8197C121.001 32.6924 121.377 32.6288 121.771 32.6288ZM121.533 37.4411C121.915 37.4411 122.242 37.3507 122.516 37.1698C122.789 36.9823 122.993 36.7144 123.127 36.3661V35.5021H121.552C120.693 35.5021 120.263 35.8169 120.263 36.4465C120.263 36.7546 120.375 36.999 120.597 37.1799C120.82 37.354 121.132 37.4411 121.533 37.4411ZM127.949 35.2007C128.305 35.2878 128.579 35.4385 128.77 35.6528C128.967 35.8671 129.066 36.1283 129.066 36.4364C129.066 36.7445 128.964 37.0191 128.76 37.2602C128.563 37.5014 128.293 37.6889 127.949 37.8229C127.605 37.9501 127.227 38.0137 126.813 38.0137C126.451 38.0137 126.094 37.9602 125.744 37.853C125.394 37.7391 125.089 37.575 124.828 37.3607L125.057 36.8282C125.286 37.0091 125.553 37.1497 125.859 37.2502C126.164 37.3507 126.473 37.4009 126.785 37.4009C127.249 37.4009 127.628 37.3105 127.92 37.1296C128.219 36.9421 128.369 36.6909 128.369 36.3762C128.369 36.0949 128.248 35.8772 128.006 35.7231C127.764 35.5624 127.434 35.482 127.014 35.482H126.155V34.9596H126.975C127.351 34.9596 127.653 34.8859 127.882 34.7386C128.111 34.5845 128.226 34.3802 128.226 34.1257C128.226 33.8444 128.095 33.6234 127.834 33.4627C127.58 33.3019 127.246 33.2215 126.832 33.2215C126.291 33.2215 125.757 33.3655 125.229 33.6535L125.038 33.101C125.636 32.7728 126.256 32.6087 126.899 32.6087C127.281 32.6087 127.624 32.669 127.93 32.7895C128.242 32.9034 128.483 33.0675 128.655 33.2818C128.833 33.4962 128.922 33.744 128.922 34.0253C128.922 34.2932 128.833 34.5309 128.655 34.7386C128.483 34.9462 128.248 35.1002 127.949 35.2007ZM130.604 32.669H131.281V36.8684L134.631 32.669H135.233V37.9535H134.555V33.754L131.215 37.9535H130.604V32.669ZM137.175 32.669H137.852V35.0098H141.011V32.669H141.689V37.9535H141.011V35.6227H137.852V37.9535H137.175V32.669ZM148.556 35.2007C148.912 35.2878 149.186 35.4385 149.377 35.6528C149.574 35.8671 149.673 36.1283 149.673 36.4364C149.673 36.7445 149.571 37.0191 149.367 37.2602C149.17 37.5014 148.9 37.6889 148.556 37.8229C148.212 37.9501 147.834 38.0137 147.42 38.0137C147.058 38.0137 146.701 37.9602 146.351 37.853C146.001 37.7391 145.696 37.575 145.435 37.3607L145.664 36.8282C145.893 37.0091 146.16 37.1497 146.466 37.2502C146.771 37.3507 147.08 37.4009 147.392 37.4009C147.856 37.4009 148.235 37.3105 148.527 37.1296C148.826 36.9421 148.976 36.6909 148.976 36.3762C148.976 36.0949 148.855 35.8772 148.613 35.7231C148.371 35.5624 148.041 35.482 147.621 35.482H146.762V34.9596H147.582C147.958 34.9596 148.26 34.8859 148.489 34.7386C148.718 34.5845 148.833 34.3802 148.833 34.1257C148.833 33.8444 148.702 33.6234 148.441 33.4627C148.187 33.3019 147.853 33.2215 147.439 33.2215C146.898 33.2215 146.364 33.3655 145.836 33.6535L145.645 33.101C146.243 32.7728 146.863 32.6087 147.506 32.6087C147.888 32.6087 148.231 32.669 148.537 32.7895C148.849 32.9034 149.09 33.0675 149.262 33.2818C149.44 33.4962 149.529 33.744 149.529 34.0253C149.529 34.2932 149.44 34.5309 149.262 34.7386C149.09 34.9462 148.855 35.1002 148.556 35.2007ZM155.601 35.5322H151.402C151.44 36.0815 151.64 36.5269 152.003 36.8684C152.366 37.2033 152.824 37.3708 153.377 37.3708C153.689 37.3708 153.975 37.3138 154.236 37.2C154.497 37.0794 154.723 36.9053 154.914 36.6775L155.296 37.1397C155.073 37.421 154.793 37.6353 154.456 37.7827C154.125 37.93 153.759 38.0037 153.358 38.0037C152.843 38.0037 152.385 37.8898 151.984 37.6621C151.589 37.4277 151.281 37.1062 151.058 36.6976C150.835 36.2891 150.724 35.8269 150.724 35.3112C150.724 34.7955 150.829 34.3334 151.039 33.9248C151.255 33.5162 151.548 33.1981 151.917 32.9704C152.292 32.7427 152.712 32.6288 153.177 32.6288C153.641 32.6288 154.058 32.7427 154.427 32.9704C154.796 33.1981 155.086 33.5162 155.296 33.9248C155.506 34.3267 155.611 34.7888 155.611 35.3112L155.601 35.5322ZM153.177 33.2416C152.693 33.2416 152.286 33.4057 151.955 33.7339C151.631 34.0554 151.446 34.4774 151.402 34.9998H154.962C154.917 34.4774 154.729 34.0554 154.398 33.7339C154.074 33.4057 153.667 33.2416 153.177 33.2416ZM159.697 32.6288C160.168 32.6288 160.594 32.7427 160.976 32.9704C161.358 33.1914 161.657 33.5062 161.873 33.9148C162.089 34.3233 162.197 34.7888 162.197 35.3112C162.197 35.8403 162.089 36.3092 161.873 36.7177C161.657 37.1263 161.358 37.4444 160.976 37.6722C160.6 37.8932 160.174 38.0037 159.697 38.0037C159.29 38.0037 158.921 37.9166 158.59 37.7425C158.265 37.5616 157.998 37.3004 157.788 36.9589V39.9025H157.111V32.669H157.759V33.7138C157.963 33.3655 158.23 33.0976 158.561 32.9101C158.898 32.7226 159.277 32.6288 159.697 32.6288ZM159.649 37.3708C159.999 37.3708 160.317 37.287 160.604 37.1196C160.89 36.9455 161.113 36.701 161.272 36.3862C161.437 36.0714 161.52 35.7131 161.52 35.3112C161.52 34.9094 161.437 34.5544 161.272 34.2463C161.113 33.9315 160.89 33.687 160.604 33.5129C160.317 33.3388 159.999 33.2517 159.649 33.2517C159.293 33.2517 158.972 33.3388 158.685 33.5129C158.405 33.687 158.183 33.9315 158.017 34.2463C157.858 34.5544 157.779 34.9094 157.779 35.3112C157.779 35.7131 157.858 36.0714 158.017 36.3862C158.183 36.701 158.405 36.9455 158.685 37.1196C158.972 37.287 159.293 37.3708 159.649 37.3708ZM165.476 35.6026H164.331V37.9535H163.653V32.669H164.331V34.9897H165.486L167.251 32.669H167.986L166.011 35.2309L168.13 37.9535H167.328L165.476 35.6026ZM170.833 32.6288C171.488 32.6288 171.991 32.8029 172.341 33.1512C172.691 33.4928 172.866 34.0018 172.866 34.6783V37.9535H172.217V37.1296C172.064 37.4042 171.838 37.6186 171.539 37.7726C171.247 37.9267 170.897 38.0037 170.49 38.0037C169.93 38.0037 169.484 37.863 169.153 37.5817C168.823 37.3004 168.657 36.9287 168.657 36.4666C168.657 36.0178 168.81 35.6562 169.115 35.3815C169.427 35.1069 169.92 34.9696 170.595 34.9696H172.188V34.6482C172.188 34.1927 172.067 33.8478 171.826 33.6134C171.584 33.3722 171.231 33.2517 170.766 33.2517C170.448 33.2517 170.143 33.3086 169.85 33.4225C169.557 33.5296 169.306 33.6803 169.096 33.8746L168.791 33.3421C169.045 33.1144 169.351 32.9402 169.707 32.8197C170.063 32.6924 170.439 32.6288 170.833 32.6288ZM170.595 37.4411C170.976 37.4411 171.304 37.3507 171.578 37.1698C171.851 36.9823 172.055 36.7144 172.188 36.3661V35.5021H170.614C169.755 35.5021 169.325 35.8169 169.325 36.4465C169.325 36.7546 169.437 36.999 169.659 37.1799C169.882 37.354 170.194 37.4411 170.595 37.4411ZM178.774 32.669V37.9535H178.096V33.3019H175.691L175.624 34.608C175.573 35.7064 175.452 36.5503 175.262 37.1397C175.071 37.7291 174.73 38.0238 174.24 38.0238C174.107 38.0238 173.944 37.997 173.754 37.9434L173.801 37.3306C173.916 37.3574 173.995 37.3708 174.04 37.3708C174.301 37.3708 174.498 37.2435 174.632 36.989C174.765 36.7345 174.854 36.4197 174.899 36.0446C174.943 35.6695 174.982 35.1739 175.013 34.5577L175.099 32.669H178.774Z" fill="black"/>
<path d="M19.5387 26.7907L19.5122 13.8419L13.4147 24.5582H11.8771L5.77955 14.0093V26.7907H2.49219V7.25586H5.32886L12.6989 20.2047L19.9364 7.25586H22.7731L22.7996 26.7907H19.5387Z" fill="black"/>
<path d="M25.2915 21.2092H28.7379V37.6743H38.441V40.7441H25.2915V21.2092Z" />
</svg>
