<svg
  width="364"
  height="86"
  viewBox="0 0 364 86"
  fill="black"
  xmlns="http://www.w3.org/2000/svg"
>
    <path
      d="M118.795 42L118.76 25.76L110.71 39.2H108.68L100.63 25.97V42H96.29V17.5H100.035L109.765 33.74L119.32 17.5H123.065L123.1 42H118.795ZM129.718 17.5H134.268V42H129.718V17.5ZM156.924 42L151.919 34.825C151.709 34.8483 151.394 34.86 150.974 34.86H145.444V42H140.894V17.5H150.974C153.098 17.5 154.941 17.85 156.504 18.55C158.091 19.25 159.304 20.2533 160.144 21.56C160.984 22.8667 161.404 24.4183 161.404 26.215C161.404 28.0583 160.949 29.645 160.039 30.975C159.153 32.305 157.869 33.2967 156.189 33.95L161.824 42H156.924ZM156.819 26.215C156.819 24.6517 156.306 23.45 155.279 22.61C154.253 21.77 152.748 21.35 150.764 21.35H145.444V31.115H150.764C152.748 31.115 154.253 30.695 155.279 29.855C156.306 28.9917 156.819 27.7783 156.819 26.215ZM182.525 42L177.52 34.825C177.31 34.8483 176.995 34.86 176.575 34.86H171.045V42H166.495V17.5H176.575C178.698 17.5 180.542 17.85 182.105 18.55C183.692 19.25 184.905 20.2533 185.745 21.56C186.585 22.8667 187.005 24.4183 187.005 26.215C187.005 28.0583 186.55 29.645 185.64 30.975C184.753 32.305 183.47 33.2967 181.79 33.95L187.425 42H182.525ZM182.42 26.215C182.42 24.6517 181.907 23.45 180.88 22.61C179.853 21.77 178.348 21.35 176.365 21.35H171.045V31.115H176.365C178.348 31.115 179.853 30.695 180.88 29.855C181.907 28.9917 182.42 27.7783 182.42 26.215ZM203.541 42.35C201.044 42.35 198.792 41.8133 196.786 40.74C194.779 39.6433 193.204 38.1383 192.061 36.225C190.917 34.2883 190.346 32.13 190.346 29.75C190.346 27.37 190.917 25.2233 192.061 23.31C193.204 21.3733 194.779 19.8683 196.786 18.795C198.792 17.6983 201.044 17.15 203.541 17.15C206.037 17.15 208.289 17.6983 210.296 18.795C212.302 19.8683 213.877 21.3617 215.021 23.275C216.164 25.1883 216.736 27.3467 216.736 29.75C216.736 32.1533 216.164 34.3117 215.021 36.225C213.877 38.1383 212.302 39.6433 210.296 40.74C208.289 41.8133 206.037 42.35 203.541 42.35ZM203.541 38.36C205.174 38.36 206.644 37.9983 207.951 37.275C209.257 36.5283 210.284 35.5017 211.031 34.195C211.777 32.865 212.151 31.3833 212.151 29.75C212.151 28.1167 211.777 26.6467 211.031 25.34C210.284 24.01 209.257 22.9833 207.951 22.26C206.644 21.5133 205.174 21.14 203.541 21.14C201.907 21.14 200.437 21.5133 199.131 22.26C197.824 22.9833 196.797 24.01 196.051 25.34C195.304 26.6467 194.931 28.1167 194.931 29.75C194.931 31.3833 195.304 32.865 196.051 34.195C196.797 35.5017 197.824 36.5283 199.131 37.275C200.437 37.9983 201.907 38.36 203.541 38.36ZM237.589 42L232.584 34.825C232.374 34.8483 232.059 34.86 231.639 34.86H226.109V42H221.559V17.5H231.639C233.762 17.5 235.605 17.85 237.169 18.55C238.755 19.25 239.969 20.2533 240.809 21.56C241.649 22.8667 242.069 24.4183 242.069 26.215C242.069 28.0583 241.614 29.645 240.704 30.975C239.817 32.305 238.534 33.2967 236.854 33.95L242.489 42H237.589ZM237.484 26.215C237.484 24.6517 236.97 23.45 235.944 22.61C234.917 21.77 233.412 21.35 231.429 21.35H226.109V31.115H231.429C233.412 31.115 234.917 30.695 235.944 29.855C236.97 28.9917 237.484 27.7783 237.484 26.215ZM256.832 17.5H261.382V38.15H274.192V42H256.832V17.5ZM288.785 42.35C286.288 42.35 284.036 41.8133 282.03 40.74C280.023 39.6433 278.448 38.1383 277.305 36.225C276.161 34.2883 275.59 32.13 275.59 29.75C275.59 27.37 276.161 25.2233 277.305 23.31C278.448 21.3733 280.023 19.8683 282.03 18.795C284.036 17.6983 286.288 17.15 288.785 17.15C291.281 17.15 293.533 17.6983 295.54 18.795C297.546 19.8683 299.121 21.3617 300.265 23.275C301.408 25.1883 301.98 27.3467 301.98 29.75C301.98 32.1533 301.408 34.3117 300.265 36.225C299.121 38.1383 297.546 39.6433 295.54 40.74C293.533 41.8133 291.281 42.35 288.785 42.35ZM288.785 38.36C290.418 38.36 291.888 37.9983 293.195 37.275C294.501 36.5283 295.528 35.5017 296.275 34.195C297.021 32.865 297.395 31.3833 297.395 29.75C297.395 28.1167 297.021 26.6467 296.275 25.34C295.528 24.01 294.501 22.9833 293.195 22.26C291.888 21.5133 290.418 21.14 288.785 21.14C287.151 21.14 285.681 21.5133 284.375 22.26C283.068 22.9833 282.041 24.01 281.295 25.34C280.548 26.6467 280.175 28.1167 280.175 29.75C280.175 31.3833 280.548 32.865 281.295 34.195C282.041 35.5017 283.068 36.5283 284.375 37.275C285.681 37.9983 287.151 38.36 288.785 38.36ZM318.248 42.35C315.751 42.35 313.499 41.8133 311.493 40.74C309.486 39.6433 307.911 38.1383 306.768 36.225C305.624 34.2883 305.053 32.13 305.053 29.75C305.053 27.37 305.624 25.2233 306.768 23.31C307.911 21.3733 309.486 19.8683 311.493 18.795C313.499 17.6983 315.751 17.15 318.248 17.15C320.744 17.15 322.996 17.6983 325.003 18.795C327.009 19.8683 328.584 21.3617 329.728 23.275C330.871 25.1883 331.443 27.3467 331.443 29.75C331.443 32.1533 330.871 34.3117 329.728 36.225C328.584 38.1383 327.009 39.6433 325.003 40.74C322.996 41.8133 320.744 42.35 318.248 42.35ZM318.248 38.36C319.881 38.36 321.351 37.9983 322.658 37.275C323.964 36.5283 324.991 35.5017 325.738 34.195C326.484 32.865 326.858 31.3833 326.858 29.75C326.858 28.1167 326.484 26.6467 325.738 25.34C324.991 24.01 323.964 22.9833 322.658 22.26C321.351 21.5133 319.881 21.14 318.248 21.14C316.614 21.14 315.144 21.5133 313.838 22.26C312.531 22.9833 311.504 24.01 310.758 25.34C310.011 26.6467 309.638 28.1167 309.638 29.75C309.638 31.3833 310.011 32.865 310.758 34.195C311.504 35.5017 312.531 36.5283 313.838 37.275C315.144 37.9983 316.614 38.36 318.248 38.36ZM344.701 31.745L340.816 35.735V42H336.266V17.5H340.816V30.065L352.926 17.5H358.036L347.746 28.455L358.666 42H353.346L344.701 31.745Z"
    />
    <path
      d="M97.124 55.4H98.438V65.84L106.502 55.4H107.708V68H106.394V57.578L98.33 68H97.124V55.4ZM111.654 58.532H112.932V62.726H118.89V58.532H120.168V68H118.89V63.824H112.932V68H111.654V58.532ZM130.46 59.666H126.878V68H125.6V59.666H122.018V58.532H130.46V59.666ZM140.149 63.662H132.229C132.301 64.646 132.679 65.444 133.363 66.056C134.047 66.656 134.911 66.956 135.955 66.956C136.543 66.956 137.083 66.854 137.575 66.65C138.067 66.434 138.493 66.122 138.853 65.714L139.573 66.542C139.153 67.046 138.625 67.43 137.989 67.694C137.365 67.958 136.675 68.09 135.919 68.09C134.947 68.09 134.083 67.886 133.327 67.478C132.583 67.058 132.001 66.482 131.581 65.75C131.161 65.018 130.951 64.19 130.951 63.266C130.951 62.342 131.149 61.514 131.545 60.782C131.953 60.05 132.505 59.48 133.201 59.072C133.909 58.664 134.701 58.46 135.577 58.46C136.453 58.46 137.239 58.664 137.935 59.072C138.631 59.48 139.177 60.05 139.573 60.782C139.969 61.502 140.167 62.33 140.167 63.266L140.149 63.662ZM135.577 59.558C134.665 59.558 133.897 59.852 133.273 60.44C132.661 61.016 132.313 61.772 132.229 62.708H138.943C138.859 61.772 138.505 61.016 137.881 60.44C137.269 59.852 136.501 59.558 135.577 59.558ZM147.874 58.46C148.762 58.46 149.566 58.664 150.286 59.072C151.006 59.468 151.57 60.032 151.978 60.764C152.386 61.496 152.59 62.33 152.59 63.266C152.59 64.214 152.386 65.054 151.978 65.786C151.57 66.518 151.006 67.088 150.286 67.496C149.578 67.892 148.774 68.09 147.874 68.09C147.106 68.09 146.41 67.934 145.786 67.622C145.174 67.298 144.67 66.83 144.274 66.218V71.492H142.996V58.532H144.22V60.404C144.604 59.78 145.108 59.3 145.732 58.964C146.368 58.628 147.082 58.46 147.874 58.46ZM147.784 66.956C148.444 66.956 149.044 66.806 149.584 66.506C150.124 66.194 150.544 65.756 150.844 65.192C151.156 64.628 151.312 63.986 151.312 63.266C151.312 62.546 151.156 61.91 150.844 61.358C150.544 60.794 150.124 60.356 149.584 60.044C149.044 59.732 148.444 59.576 147.784 59.576C147.112 59.576 146.506 59.732 145.966 60.044C145.438 60.356 145.018 60.794 144.706 61.358C144.406 61.91 144.256 62.546 144.256 63.266C144.256 63.986 144.406 64.628 144.706 65.192C145.018 65.756 145.438 66.194 145.966 66.506C146.506 66.806 147.112 66.956 147.784 66.956ZM155.336 58.532H156.614V62.726H162.572V58.532H163.85V68H162.572V63.824H156.614V68H155.336V58.532ZM175.762 63.662H167.842C167.914 64.646 168.292 65.444 168.976 66.056C169.66 66.656 170.524 66.956 171.568 66.956C172.156 66.956 172.696 66.854 173.188 66.65C173.68 66.434 174.106 66.122 174.466 65.714L175.186 66.542C174.766 67.046 174.238 67.43 173.602 67.694C172.978 67.958 172.288 68.09 171.532 68.09C170.56 68.09 169.696 67.886 168.94 67.478C168.196 67.058 167.614 66.482 167.194 65.75C166.774 65.018 166.564 64.19 166.564 63.266C166.564 62.342 166.762 61.514 167.158 60.782C167.566 60.05 168.118 59.48 168.814 59.072C169.522 58.664 170.314 58.46 171.19 58.46C172.066 58.46 172.852 58.664 173.548 59.072C174.244 59.48 174.79 60.05 175.186 60.782C175.582 61.502 175.78 62.33 175.78 63.266L175.762 63.662ZM171.19 59.558C170.278 59.558 169.51 59.852 168.886 60.44C168.274 61.016 167.926 61.772 167.842 62.708H174.556C174.472 61.772 174.118 61.016 173.494 60.44C172.882 59.852 172.114 59.558 171.19 59.558ZM184.847 59.666H181.265V68H179.987V59.666H176.405V58.532H184.847V59.666ZM185.535 62.564H190.251V63.68H185.535V62.564ZM203.73 58.532V68H202.56V60.512L198.726 66.848H198.15L194.316 60.494V68H193.146V58.532H194.442L198.456 65.354L202.542 58.532H203.73ZM210.625 58.46C211.861 58.46 212.809 58.772 213.469 59.396C214.129 60.008 214.459 60.92 214.459 62.132V68H213.235V66.524C212.947 67.016 212.521 67.4 211.957 67.676C211.405 67.952 210.745 68.09 209.977 68.09C208.921 68.09 208.081 67.838 207.457 67.334C206.833 66.83 206.521 66.164 206.521 65.336C206.521 64.532 206.809 63.884 207.385 63.392C207.973 62.9 208.903 62.654 210.175 62.654H213.181V62.078C213.181 61.262 212.953 60.644 212.497 60.224C212.041 59.792 211.375 59.576 210.499 59.576C209.899 59.576 209.323 59.678 208.771 59.882C208.219 60.074 207.745 60.344 207.349 60.692L206.773 59.738C207.253 59.33 207.829 59.018 208.501 58.802C209.173 58.574 209.881 58.46 210.625 58.46ZM210.175 67.082C210.895 67.082 211.513 66.92 212.029 66.596C212.545 66.26 212.929 65.78 213.181 65.156V63.608H210.211C208.591 63.608 207.781 64.172 207.781 65.3C207.781 65.852 207.991 66.29 208.411 66.614C208.831 66.926 209.419 67.082 210.175 67.082ZM224.557 59.666H219.139V68H217.861V58.532H224.557V59.666ZM229.662 58.46C230.898 58.46 231.846 58.772 232.506 59.396C233.166 60.008 233.496 60.92 233.496 62.132V68H232.272V66.524C231.984 67.016 231.558 67.4 230.994 67.676C230.442 67.952 229.782 68.09 229.014 68.09C227.958 68.09 227.118 67.838 226.494 67.334C225.87 66.83 225.558 66.164 225.558 65.336C225.558 64.532 225.846 63.884 226.422 63.392C227.01 62.9 227.94 62.654 229.212 62.654H232.218V62.078C232.218 61.262 231.99 60.644 231.534 60.224C231.078 59.792 230.412 59.576 229.536 59.576C228.936 59.576 228.36 59.678 227.808 59.882C227.256 60.074 226.782 60.344 226.386 60.692L225.81 59.738C226.29 59.33 226.866 59.018 227.538 58.802C228.21 58.574 228.918 58.46 229.662 58.46ZM229.212 67.082C229.932 67.082 230.55 66.92 231.066 66.596C231.582 66.26 231.966 65.78 232.218 65.156V63.608H229.248C227.628 63.608 226.818 64.172 226.818 65.3C226.818 65.852 227.028 66.29 227.448 66.614C227.868 66.926 228.456 67.082 229.212 67.082ZM241.313 63.068C241.985 63.224 242.501 63.494 242.861 63.878C243.233 64.262 243.419 64.73 243.419 65.282C243.419 65.834 243.227 66.326 242.843 66.758C242.471 67.19 241.961 67.526 241.313 67.766C240.665 67.994 239.951 68.108 239.171 68.108C238.487 68.108 237.815 68.012 237.155 67.82C236.495 67.616 235.919 67.322 235.427 66.938L235.859 65.984C236.291 66.308 236.795 66.56 237.371 66.74C237.947 66.92 238.529 67.01 239.117 67.01C239.993 67.01 240.707 66.848 241.259 66.524C241.823 66.188 242.105 65.738 242.105 65.174C242.105 64.67 241.877 64.28 241.421 64.004C240.965 63.716 240.341 63.572 239.549 63.572H237.929V62.636H239.477C240.185 62.636 240.755 62.504 241.187 62.24C241.619 61.964 241.835 61.598 241.835 61.142C241.835 60.638 241.589 60.242 241.097 59.954C240.617 59.666 239.987 59.522 239.207 59.522C238.187 59.522 237.179 59.78 236.183 60.296L235.823 59.306C236.951 58.718 238.121 58.424 239.333 58.424C240.053 58.424 240.701 58.532 241.277 58.748C241.865 58.952 242.321 59.246 242.645 59.63C242.981 60.014 243.149 60.458 243.149 60.962C243.149 61.442 242.981 61.868 242.645 62.24C242.321 62.612 241.877 62.888 241.313 63.068ZM246.32 58.532H247.598V66.056L253.916 58.532H255.05V68H253.772V60.476L247.472 68H246.32V58.532ZM258.713 58.532H259.991V62.726H265.949V58.532H267.227V68H265.949V63.824H259.991V68H258.713V58.532ZM280.178 63.068C280.85 63.224 281.366 63.494 281.726 63.878C282.098 64.262 282.284 64.73 282.284 65.282C282.284 65.834 282.092 66.326 281.708 66.758C281.336 67.19 280.826 67.526 280.178 67.766C279.53 67.994 278.816 68.108 278.036 68.108C277.352 68.108 276.68 68.012 276.02 67.82C275.36 67.616 274.784 67.322 274.292 66.938L274.724 65.984C275.156 66.308 275.66 66.56 276.236 66.74C276.812 66.92 277.394 67.01 277.982 67.01C278.858 67.01 279.572 66.848 280.124 66.524C280.688 66.188 280.97 65.738 280.97 65.174C280.97 64.67 280.742 64.28 280.286 64.004C279.83 63.716 279.206 63.572 278.414 63.572H276.794V62.636H278.342C279.05 62.636 279.62 62.504 280.052 62.24C280.484 61.964 280.7 61.598 280.7 61.142C280.7 60.638 280.454 60.242 279.962 59.954C279.482 59.666 278.852 59.522 278.072 59.522C277.052 59.522 276.044 59.78 275.048 60.296L274.688 59.306C275.816 58.718 276.986 58.424 278.198 58.424C278.918 58.424 279.566 58.532 280.142 58.748C280.73 58.952 281.186 59.246 281.51 59.63C281.846 60.014 282.014 60.458 282.014 60.962C282.014 61.442 281.846 61.868 281.51 62.24C281.186 62.612 280.742 62.888 280.178 63.068ZM293.465 63.662H285.545C285.617 64.646 285.995 65.444 286.679 66.056C287.363 66.656 288.227 66.956 289.271 66.956C289.859 66.956 290.399 66.854 290.891 66.65C291.383 66.434 291.809 66.122 292.169 65.714L292.889 66.542C292.469 67.046 291.941 67.43 291.305 67.694C290.681 67.958 289.991 68.09 289.235 68.09C288.263 68.09 287.399 67.886 286.643 67.478C285.899 67.058 285.317 66.482 284.897 65.75C284.477 65.018 284.267 64.19 284.267 63.266C284.267 62.342 284.465 61.514 284.861 60.782C285.269 60.05 285.821 59.48 286.517 59.072C287.225 58.664 288.017 58.46 288.893 58.46C289.769 58.46 290.555 58.664 291.251 59.072C291.947 59.48 292.493 60.05 292.889 60.782C293.285 61.502 293.483 62.33 293.483 63.266L293.465 63.662ZM288.893 59.558C287.981 59.558 287.213 59.852 286.589 60.44C285.977 61.016 285.629 61.772 285.545 62.708H292.259C292.175 61.772 291.821 61.016 291.197 60.44C290.585 59.852 289.817 59.558 288.893 59.558ZM301.19 58.46C302.078 58.46 302.882 58.664 303.602 59.072C304.322 59.468 304.886 60.032 305.294 60.764C305.702 61.496 305.906 62.33 305.906 63.266C305.906 64.214 305.702 65.054 305.294 65.786C304.886 66.518 304.322 67.088 303.602 67.496C302.894 67.892 302.09 68.09 301.19 68.09C300.422 68.09 299.726 67.934 299.102 67.622C298.49 67.298 297.986 66.83 297.59 66.218V71.492H296.312V58.532H297.536V60.404C297.92 59.78 298.424 59.3 299.048 58.964C299.684 58.628 300.398 58.46 301.19 58.46ZM301.1 66.956C301.76 66.956 302.36 66.806 302.9 66.506C303.44 66.194 303.86 65.756 304.16 65.192C304.472 64.628 304.628 63.986 304.628 63.266C304.628 62.546 304.472 61.91 304.16 61.358C303.86 60.794 303.44 60.356 302.9 60.044C302.36 59.732 301.76 59.576 301.1 59.576C300.428 59.576 299.822 59.732 299.282 60.044C298.754 60.356 298.334 60.794 298.022 61.358C297.722 61.91 297.572 62.546 297.572 63.266C297.572 63.986 297.722 64.628 298.022 65.192C298.334 65.756 298.754 66.194 299.282 66.506C299.822 66.806 300.428 66.956 301.1 66.956ZM312.09 63.788H309.93V68H308.652V58.532H309.93V62.69H312.108L315.438 58.532H316.824L313.098 63.122L317.094 68H315.582L312.09 63.788ZM322.193 58.46C323.429 58.46 324.377 58.772 325.037 59.396C325.697 60.008 326.027 60.92 326.027 62.132V68H324.803V66.524C324.515 67.016 324.089 67.4 323.525 67.676C322.973 67.952 322.313 68.09 321.545 68.09C320.489 68.09 319.649 67.838 319.025 67.334C318.401 66.83 318.089 66.164 318.089 65.336C318.089 64.532 318.377 63.884 318.953 63.392C319.541 62.9 320.471 62.654 321.743 62.654H324.749V62.078C324.749 61.262 324.521 60.644 324.065 60.224C323.609 59.792 322.943 59.576 322.067 59.576C321.467 59.576 320.891 59.678 320.339 59.882C319.787 60.074 319.313 60.344 318.917 60.692L318.341 59.738C318.821 59.33 319.397 59.018 320.069 58.802C320.741 58.574 321.449 58.46 322.193 58.46ZM321.743 67.082C322.463 67.082 323.081 66.92 323.597 66.596C324.113 66.26 324.497 65.78 324.749 65.156V63.608H321.779C320.159 63.608 319.349 64.172 319.349 65.3C319.349 65.852 319.559 66.29 319.979 66.614C320.399 66.926 320.987 67.082 321.743 67.082ZM337.169 58.532V68H335.891V59.666H331.355L331.229 62.006C331.133 63.974 330.905 65.486 330.545 66.542C330.185 67.598 329.543 68.126 328.619 68.126C328.367 68.126 328.061 68.078 327.701 67.982L327.791 66.884C328.007 66.932 328.157 66.956 328.241 66.956C328.733 66.956 329.105 66.728 329.357 66.272C329.609 65.816 329.777 65.252 329.861 64.58C329.945 63.908 330.017 63.02 330.077 61.916L330.239 58.532H337.169Z"
    />
    <path
      d="M36.85 48L36.8 24.8L25.3 44H22.4L10.9 25.1V48H4.7V13H10.05L23.95 36.2L37.6 13H42.95L43 48H36.85Z"
    />
    <path d="M47.7 38H54.2V67.5H72.5V73H47.7V38Z" />
</svg>